<mxfile host="app.diagrams.net" modified="2024-05-31T11:12:26.140Z" agent="Mozilla/5.0 (Windows NT 10.0; Win64; x64) AppleWebKit/537.36 (KHTML, like Gecko) Chrome/125.0.0.0 Safari/537.36" etag="kDIwWBixf_6nxmwMrIjV" version="24.4.10" type="device">
  <diagram name="Trang-1" id="JUMVndhIV6VzTNX-Wflu">
    <mxGraphModel dx="1134" dy="589" grid="1" gridSize="10" guides="1" tooltips="1" connect="1" arrows="1" fold="1" page="1" pageScale="1" pageWidth="827" pageHeight="1169" math="0" shadow="0">
      <root>
        <mxCell id="0" />
        <mxCell id="1" parent="0" />
        <mxCell id="P2O0nUHj1vZX7GxOqHco-1" value="Client" style="swimlane;whiteSpace=wrap;html=1;" vertex="1" parent="1">
          <mxGeometry x="80" y="40" width="280" height="640" as="geometry" />
        </mxCell>
        <mxCell id="P2O0nUHj1vZX7GxOqHco-2" value="" style="ellipse;shape=doubleEllipse;whiteSpace=wrap;html=1;aspect=fixed;fillColor=#000000;" vertex="1" parent="P2O0nUHj1vZX7GxOqHco-1">
          <mxGeometry x="20" y="55" width="30" height="30" as="geometry" />
        </mxCell>
        <mxCell id="P2O0nUHj1vZX7GxOqHco-3" value="Truy cập màn hình danh sách" style="rounded=0;whiteSpace=wrap;html=1;" vertex="1" parent="P2O0nUHj1vZX7GxOqHco-1">
          <mxGeometry x="75" y="40" width="130" height="60" as="geometry" />
        </mxCell>
        <mxCell id="P2O0nUHj1vZX7GxOqHco-4" value="" style="endArrow=classic;html=1;rounded=0;exitX=1;exitY=0.5;exitDx=0;exitDy=0;entryX=0;entryY=0.5;entryDx=0;entryDy=0;" edge="1" parent="P2O0nUHj1vZX7GxOqHco-1" source="P2O0nUHj1vZX7GxOqHco-2" target="P2O0nUHj1vZX7GxOqHco-3">
          <mxGeometry width="50" height="50" relative="1" as="geometry">
            <mxPoint x="310" y="200" as="sourcePoint" />
            <mxPoint x="360" y="150" as="targetPoint" />
          </mxGeometry>
        </mxCell>
        <mxCell id="P2O0nUHj1vZX7GxOqHco-12" value="" style="ellipse;html=1;shape=endState;fillColor=#000000;strokeColor=#ff0000;" vertex="1" parent="P2O0nUHj1vZX7GxOqHco-1">
          <mxGeometry x="130" y="550" width="30" height="30" as="geometry" />
        </mxCell>
        <mxCell id="P2O0nUHj1vZX7GxOqHco-25" value="Nhận dữ liệu trả về" style="rounded=0;whiteSpace=wrap;html=1;" vertex="1" parent="P2O0nUHj1vZX7GxOqHco-1">
          <mxGeometry x="75" y="160" width="130" height="60" as="geometry" />
        </mxCell>
        <mxCell id="P2O0nUHj1vZX7GxOqHco-27" value="" style="html=1;whiteSpace=wrap;aspect=fixed;shape=isoRectangle;" vertex="1" parent="P2O0nUHj1vZX7GxOqHco-1">
          <mxGeometry x="98.34" y="270" width="83.33" height="50" as="geometry" />
        </mxCell>
        <mxCell id="P2O0nUHj1vZX7GxOqHco-28" value="" style="endArrow=classic;html=1;rounded=0;exitX=0.5;exitY=1;exitDx=0;exitDy=0;entryX=0.515;entryY=0.058;entryDx=0;entryDy=0;entryPerimeter=0;" edge="1" parent="P2O0nUHj1vZX7GxOqHco-1" source="P2O0nUHj1vZX7GxOqHco-25" target="P2O0nUHj1vZX7GxOqHco-27">
          <mxGeometry width="50" height="50" relative="1" as="geometry">
            <mxPoint x="340" y="250" as="sourcePoint" />
            <mxPoint x="390" y="200" as="targetPoint" />
          </mxGeometry>
        </mxCell>
        <mxCell id="P2O0nUHj1vZX7GxOqHco-30" value="Hiển thị màn hình trống" style="rounded=0;whiteSpace=wrap;html=1;" vertex="1" parent="P2O0nUHj1vZX7GxOqHco-1">
          <mxGeometry x="10" y="360" width="120" height="60" as="geometry" />
        </mxCell>
        <mxCell id="P2O0nUHj1vZX7GxOqHco-31" value="Hiển thị danh sách phân trang và tổng số bản ghi" style="rounded=0;whiteSpace=wrap;html=1;" vertex="1" parent="P2O0nUHj1vZX7GxOqHco-1">
          <mxGeometry x="150" y="360" width="120" height="60" as="geometry" />
        </mxCell>
        <mxCell id="P2O0nUHj1vZX7GxOqHco-32" value="" style="endArrow=classic;html=1;rounded=0;" edge="1" parent="P2O0nUHj1vZX7GxOqHco-1">
          <mxGeometry width="50" height="50" relative="1" as="geometry">
            <mxPoint x="182" y="295" as="sourcePoint" />
            <mxPoint x="210" y="360" as="targetPoint" />
            <Array as="points">
              <mxPoint x="210" y="295" />
            </Array>
          </mxGeometry>
        </mxCell>
        <mxCell id="P2O0nUHj1vZX7GxOqHco-33" value="Có dữ liệu" style="text;html=1;align=center;verticalAlign=middle;whiteSpace=wrap;rounded=0;" vertex="1" parent="P2O0nUHj1vZX7GxOqHco-1">
          <mxGeometry x="181.67" y="270" width="60" height="30" as="geometry" />
        </mxCell>
        <mxCell id="P2O0nUHj1vZX7GxOqHco-34" value="" style="endArrow=classic;html=1;rounded=0;exitX=0.035;exitY=0.496;exitDx=0;exitDy=0;exitPerimeter=0;entryX=0.5;entryY=0;entryDx=0;entryDy=0;" edge="1" parent="P2O0nUHj1vZX7GxOqHco-1" source="P2O0nUHj1vZX7GxOqHco-27" target="P2O0nUHj1vZX7GxOqHco-30">
          <mxGeometry width="50" height="50" relative="1" as="geometry">
            <mxPoint x="340" y="390" as="sourcePoint" />
            <mxPoint x="390" y="340" as="targetPoint" />
            <Array as="points">
              <mxPoint x="70" y="295" />
            </Array>
          </mxGeometry>
        </mxCell>
        <mxCell id="P2O0nUHj1vZX7GxOqHco-35" value="Không có dữ liệu" style="text;html=1;align=center;verticalAlign=middle;whiteSpace=wrap;rounded=0;" vertex="1" parent="P2O0nUHj1vZX7GxOqHco-1">
          <mxGeometry x="40" y="260" width="60" height="30" as="geometry" />
        </mxCell>
        <mxCell id="P2O0nUHj1vZX7GxOqHco-37" value="" style="html=1;points=[[0,0,0,0,5],[0,1,0,0,-5],[1,0,0,0,5],[1,1,0,0,-5]];perimeter=orthogonalPerimeter;outlineConnect=0;targetShapes=umlLifeline;portConstraint=eastwest;newEdgeStyle={&quot;curved&quot;:0,&quot;rounded&quot;:0};direction=south;fillColor=#000000;" vertex="1" parent="P2O0nUHj1vZX7GxOqHco-1">
          <mxGeometry x="80" y="480" width="120" height="10" as="geometry" />
        </mxCell>
        <mxCell id="P2O0nUHj1vZX7GxOqHco-39" value="" style="endArrow=classic;html=1;rounded=0;exitX=0.5;exitY=1;exitDx=0;exitDy=0;entryX=0;entryY=0.417;entryDx=0;entryDy=0;entryPerimeter=0;" edge="1" parent="P2O0nUHj1vZX7GxOqHco-1" source="P2O0nUHj1vZX7GxOqHco-30" target="P2O0nUHj1vZX7GxOqHco-37">
          <mxGeometry width="50" height="50" relative="1" as="geometry">
            <mxPoint x="340" y="390" as="sourcePoint" />
            <mxPoint x="390" y="340" as="targetPoint" />
          </mxGeometry>
        </mxCell>
        <mxCell id="P2O0nUHj1vZX7GxOqHco-42" value="" style="endArrow=classic;html=1;rounded=0;entryX=0.5;entryY=0;entryDx=0;entryDy=0;" edge="1" parent="P2O0nUHj1vZX7GxOqHco-1" source="P2O0nUHj1vZX7GxOqHco-37" target="P2O0nUHj1vZX7GxOqHco-12">
          <mxGeometry width="50" height="50" relative="1" as="geometry">
            <mxPoint x="340" y="390" as="sourcePoint" />
            <mxPoint x="390" y="340" as="targetPoint" />
          </mxGeometry>
        </mxCell>
        <mxCell id="P2O0nUHj1vZX7GxOqHco-14" value="Server" style="swimlane;whiteSpace=wrap;html=1;" vertex="1" parent="1">
          <mxGeometry x="360" y="40" width="280" height="640" as="geometry" />
        </mxCell>
        <mxCell id="P2O0nUHj1vZX7GxOqHco-23" value="Lấy dữ liệu" style="rounded=0;whiteSpace=wrap;html=1;" vertex="1" parent="P2O0nUHj1vZX7GxOqHco-14">
          <mxGeometry x="80" y="40" width="130" height="60" as="geometry" />
        </mxCell>
        <mxCell id="P2O0nUHj1vZX7GxOqHco-24" value="" style="endArrow=classic;html=1;rounded=0;exitX=1;exitY=0.5;exitDx=0;exitDy=0;entryX=0;entryY=0.5;entryDx=0;entryDy=0;" edge="1" parent="1" source="P2O0nUHj1vZX7GxOqHco-3" target="P2O0nUHj1vZX7GxOqHco-23">
          <mxGeometry width="50" height="50" relative="1" as="geometry">
            <mxPoint x="420" y="290" as="sourcePoint" />
            <mxPoint x="470" y="240" as="targetPoint" />
          </mxGeometry>
        </mxCell>
        <mxCell id="P2O0nUHj1vZX7GxOqHco-26" value="" style="endArrow=classic;html=1;rounded=0;exitX=0.5;exitY=1;exitDx=0;exitDy=0;entryX=1;entryY=0.5;entryDx=0;entryDy=0;" edge="1" parent="1" source="P2O0nUHj1vZX7GxOqHco-23" target="P2O0nUHj1vZX7GxOqHco-25">
          <mxGeometry width="50" height="50" relative="1" as="geometry">
            <mxPoint x="420" y="290" as="sourcePoint" />
            <mxPoint x="470" y="240" as="targetPoint" />
            <Array as="points">
              <mxPoint x="505" y="230" />
            </Array>
          </mxGeometry>
        </mxCell>
        <mxCell id="P2O0nUHj1vZX7GxOqHco-40" value="" style="endArrow=classic;html=1;rounded=0;exitX=0.5;exitY=1;exitDx=0;exitDy=0;" edge="1" parent="1" source="P2O0nUHj1vZX7GxOqHco-31">
          <mxGeometry width="50" height="50" relative="1" as="geometry">
            <mxPoint x="420" y="430" as="sourcePoint" />
            <mxPoint x="230" y="520" as="targetPoint" />
          </mxGeometry>
        </mxCell>
      </root>
    </mxGraphModel>
  </diagram>
</mxfile>
